<?xml version="1.0" encoding="utf-8"?>
<!-- Generator: Adobe Illustrator 25.0.1, SVG Export Plug-In . SVG Version: 6.00 Build 0)  -->
<svg version="1.1" id="Logotype" xmlns="http://www.w3.org/2000/svg" xmlns:xlink="http://www.w3.org/1999/xlink" x="0px" y="0px"
	 viewBox="0 0 1984.25 2551.18" style="enable-background:new 0 0 1984.25 2551.18;" xml:space="preserve">
<style type="text/css">
	.st0{fill:#000091;}
	.st1{fill:#E10010;}
	.st2{fill:#FFFFFF;}
</style>
<rect class="st0" width="1984.25" height="2551.18"/>
<g>
	<circle class="st1" cx="1007.13" cy="985.16" r="172.73"/>
	<path class="st2" d="M1326.67,985.16c0,189.53-154.19,343.72-343.72,343.72c-236.81,0-434.83-202.51-483.99-473.27h283.87
		c-22.11,38.13-34.78,82.38-34.78,129.54c0,142.86,116.23,259.09,259.09,259.09c142.86,0,259.09-116.23,259.09-259.09
		c0-47.16-12.67-91.41-34.78-129.54h69.87C1317.64,895.62,1326.67,939.35,1326.67,985.16z M956.82,302.8
		c0,86.56,80.62,200.64,78.06,267.15c-1.83,47.53-27.76,79.8-27.76,79.8c0-135.32-97.14-194.07-97.14-294.9
		c0-19.07,2.67-37.06,7.13-53.8c1.08-4.05-4.59-6.19-6.46-2.44c-23.64,47.68-42.31,105.45-42.31,169
		c0,136.48,138.78,258.47,138.78,258.47S1145.9,604.08,1145.9,467.6c0-108.71-128.57-181.25-135.38-294.26
		c-0.19-3.2-4.26-4.45-6.19-1.88C990.43,189.98,956.82,241.14,956.82,302.8z"/>
</g>
<g>
	<g>
		<path class="st2" d="M298.46,1492.98h81.71c66.52,0,111.78,48.9,111.78,106.31c0,57.41-45.26,106.31-111.78,106.31h-81.71V1492.98
			z M327.02,1519.1v160.38h53.76c47.39,0,81.71-35.84,81.71-80.19c0-44.65-34.32-80.19-81.71-80.19H327.02z"/>
		<path class="st2" d="M736.78,1599.3c0,60.75-45.26,112.39-111.48,112.39c-66.52,0-111.78-51.64-111.78-112.39
			c0-60.75,45.26-112.39,111.78-112.39C691.52,1486.91,736.78,1538.54,736.78,1599.3z M707.32,1599.3
			c0-47.38-34.32-85.66-82.01-85.66c-47.99,0-82.32,38.27-82.32,85.66c0,47.39,34.32,85.66,82.32,85.66
			C672.99,1684.96,707.32,1646.68,707.32,1599.3z"/>
		<path class="st2" d="M905.67,1492.98h28.55v132.44c0,54.68-32.5,86.27-82.32,86.27c-49.82,0-82.62-31.59-82.62-86.27v-132.44
			h28.55v134.26c0,36.75,21.26,57.71,54.07,57.71c32.5,0,53.76-20.96,53.76-57.71V1492.98z"/>
		<path class="st2" d="M1034.46,1492.98h38.27l84.75,212.63h-30.38l-24.6-62.57h-97.81l-24.6,62.57h-30.38L1034.46,1492.98z
			 M1093.09,1618.43l-39.49-100.54l-39.49,100.54H1093.09z"/>
		<path class="st2" d="M1187.56,1492.98h37.36l120.29,176.79v-176.79h28.55v212.63h-37.36l-120.29-176.79v176.79h-28.55V1492.98z"/>
		<path class="st2" d="M1433.9,1492.98h114.21v24.91h-85.66v67.13h73.51v24.6h-73.51v71.08h85.66v24.91H1433.9V1492.98z"/>
		<path class="st2" d="M1597.63,1657.31c14.88,18.83,32.5,28.55,52.55,28.55c23.09,0,36.45-14.58,36.45-34.02
			c0-45.56-100.54-40.1-100.54-107.83c0-30.98,25.52-57.11,61.66-57.11c30.07,0,51.94,13.67,67.74,34.63l-21.26,18.53
			c-12.45-17.92-27.64-27.64-46.17-27.64c-19.74,0-32.81,13.37-32.81,30.98c0,45.87,100.54,40.1,100.54,108.14
			c0,36.15-28.25,59.84-65.31,59.84c-31.59,0-54.98-11.85-73.51-34.93L1597.63,1657.31z"/>
	</g>
	<g>
		<path class="st2" d="M457.73,2017.45l-23.09-22.17c-17.31,17.62-39.49,27.94-68.04,27.94c-42.83,0-73.81-25.52-73.81-65.92
			c0-28.86,18.53-49.21,41.61-58.62c-13.37-14.88-20.96-28.55-20.96-47.99c0-29.77,22.78-51.94,56.8-51.94
			c32.2,0,55.59,20.96,55.59,51.33c0,29.16-20.35,46.47-47.99,55.59l53.16,52.55c9.11-14.88,16.1-33.72,21.26-54.68h27.03
			c-7.29,28.25-16.71,53.16-29.77,72.9l41.61,41.01H457.73z M368.13,1999.53c18.83,0,34.93-7.9,48.3-21.57l-64.4-61.36
			c-0.61-0.61-0.91-0.91-1.52-1.52c-17.62,6.99-30.38,21.57-30.38,42.22C320.13,1983.43,341.7,1999.53,368.13,1999.53z
			 M361.75,1890.18c26.73-7.29,39.18-19.44,39.18-39.18c0-15.49-11.54-28.55-29.77-28.55c-19.74,0-30.98,12.76-30.98,29.77
			C340.18,1870.13,349.6,1878.63,361.75,1890.18z"/>
		<path class="st2" d="M631.17,1804.82h81.71c66.52,0,111.78,48.9,111.78,106.31c0,57.41-45.26,106.31-111.78,106.31h-81.71V1804.82
			z M659.72,1830.94v160.38h53.76c47.39,0,81.71-35.84,81.71-80.19c0-44.65-34.32-80.19-81.71-80.19H659.72z"/>
		<path class="st2" d="M872.75,1804.82h56.5c42.83,0,69.26,23.39,69.26,59.84c0,25.52-13.06,44.65-35.54,53.46l68.65,99.33h-34.32
			l-61.36-93.56c-2.13,0.3-4.56,0.3-6.68,0.3h-27.95v93.25h-28.55V1804.82z M901.31,1829.73v69.56h29.16
			c24.3,0,38.58-12.45,38.58-35.24c0-21.57-14.28-34.32-38.58-34.32H901.31z"/>
		<path class="st2" d="M1267.74,1911.13c0,60.75-45.26,112.39-111.48,112.39c-66.52,0-111.78-51.64-111.78-112.39
			c0-60.75,45.26-112.39,111.78-112.39C1222.48,1798.75,1267.74,1850.38,1267.74,1911.13z M1238.28,1911.13
			c0-47.39-34.32-85.66-82.01-85.66c-47.99,0-82.32,38.27-82.32,85.66c0,47.39,34.32,85.66,82.32,85.66
			C1203.95,1996.79,1238.28,1958.52,1238.28,1911.13z"/>
		<path class="st2" d="M1315.53,1804.82h28.55v212.63h-28.55V1804.82z"/>
		<path class="st2" d="M1387.02,1804.82h169.5v26.12h-70.47v186.51h-28.55v-186.51h-70.47V1804.82z"/>
		<path class="st2" d="M1597.63,1969.15c14.88,18.83,32.5,28.55,52.55,28.55c23.09,0,36.45-14.58,36.45-34.02
			c0-45.56-100.54-40.09-100.54-107.83c0-30.98,25.52-57.11,61.66-57.11c30.07,0,51.94,13.67,67.74,34.63l-21.26,18.53
			c-12.45-17.92-27.64-27.64-46.17-27.64c-19.74,0-32.81,13.37-32.81,30.98c0,45.87,100.54,40.1,100.54,108.14
			c0,36.15-28.25,59.84-65.31,59.84c-31.59,0-54.98-11.85-73.51-34.93L1597.63,1969.15z"/>
	</g>
	<g>
		<path class="st2" d="M298.46,2116.66h28.55v212.63h-28.55V2116.66z"/>
		<path class="st2" d="M376.2,2116.66h37.36l120.29,176.79v-176.79h28.55v212.63h-37.36L404.75,2152.5v176.79H376.2V2116.66z"/>
		<path class="st2" d="M611.58,2116.66h81.71c66.52,0,111.78,48.9,111.78,106.31c0,57.41-45.26,106.31-111.78,106.31h-81.71V2116.66
			z M640.13,2142.78v160.38h53.77c47.39,0,81.71-35.84,81.71-80.19c0-44.65-34.32-80.19-81.71-80.19H640.13z"/>
		<path class="st2" d="M833.38,2116.66h28.55v212.63h-28.55V2116.66z"/>
		<path class="st2" d="M911.11,2116.66h56.5c42.83,0,69.26,23.39,69.26,59.84c0,25.52-13.06,44.65-35.54,53.46l68.65,99.33h-34.32
			l-61.36-93.56c-2.13,0.3-4.56,0.3-6.68,0.3h-27.94v93.25h-28.55V2116.66z M939.66,2141.57v69.56h29.16
			c24.3,0,38.58-12.45,38.58-35.24c0-21.57-14.28-34.32-38.58-34.32H939.66z"/>
		<path class="st2" d="M1081.52,2116.66h114.21v24.91h-85.66v67.13h73.51v24.6h-73.51v71.08h85.66v24.91h-114.21V2116.66z"/>
		<g>
			<path class="st2" d="M1384.99,2274.01l22.78,17.62c-19.44,26.43-50.73,43.74-89,43.74c-66.52,0-111.78-51.64-111.78-112.39
				c0-60.75,45.26-112.39,111.78-112.39c38.27,0,69.56,17.62,89,43.74l-22.78,17.62c-14.28-20.66-37.67-34.63-66.22-34.63
				c-47.99,0-82.32,38.27-82.32,85.66c0,47.39,34.32,85.66,82.32,85.66C1347.33,2308.63,1370.72,2294.66,1384.99,2274.01z"/>
			<path class="st2" d="M1409.9,2116.66h169.5v26.12h-70.47v186.51h-28.55v-186.51h-70.47V2116.66z"/>
			<path class="st2" d="M1597.63,2280.99c14.88,18.83,32.5,28.55,52.55,28.55c23.09,0,36.45-14.58,36.45-34.02
				c0-45.56-100.54-40.1-100.54-107.83c0-30.98,25.52-57.11,61.66-57.11c30.07,0,51.94,13.67,67.74,34.63l-21.26,18.53
				c-12.45-17.92-27.64-27.64-46.17-27.64c-19.74,0-32.81,13.37-32.81,30.98c0,45.87,100.54,40.09,100.54,108.14
				c0,36.15-28.25,59.84-65.31,59.84c-31.59,0-54.98-11.85-73.51-34.93L1597.63,2280.99z"/>
		</g>
	</g>
</g>
</svg>
