<svg height="512pt" viewBox="0 0 512 512" width="512pt" xmlns="http://www.w3.org/2000/svg"><path d="m512 256c0 141.386719-114.613281 256-256 256s-256-114.613281-256-256 114.613281-256 256-256 256 114.613281 256 256zm0 0" fill="#ffce00"/><path d="m512 256c0-12.265625-.882812-24.320312-2.550781-36.125l-47.074219-47.078125-19.410156 25.789063-109.976563-109.976563-73.75 30 24.433594 24.433594-36.863281 40.691406-96.328125-96.328125-16.226563 272.050781-40.253906 30.511719 20.472656 21.4375 97.828125 96.863281c14.203125 2.441407 28.800781 3.730469 43.699219 3.730469 141.386719 0 256-114.613281 256-256zm0 0" fill="#ffa300"/><path d="m388.625 172.796875v30h22.757812l-43.484374 40.5-43.136719-40.535156-81.527344 79.109375-42.238281-42.839844-82.386719 77.007812 20.488281 21.917969 61.042969-57.0625 42.625 43.234375 82.332031-79.886718 42.710938 40.132812 64.566406-60.132812v22.304687h30v-73.75zm0 0" fill="#414952"/><path d="m388.625 172.796875v30h22.757812l-43.484374 40.5-43.136719-40.535156-69.644531 67.578125v41.800781l69.980468-67.898437 42.710938 40.132812 64.566406-60.132812v22.304687h30v-73.75zm0 0" fill="#333940"/><path d="m259.238281 88.609375v30h19.242188l-41.335938 45.816406-45.683593-41.96875-73.3125 74.703125 21.410156 21.011719 52.980468-53.984375 46.601563 42.8125 63.847656-70.769531v26.128906h30v-73.75zm0 0" fill="#414952"/><path d="m259.238281 88.609375v30h19.242188l-23.363281 25.894531v44.785156l47.871093-53.058593v26.128906h30v-73.75zm0 0" fill="#333940"/><path d="m94 353.96875h324v36h-324zm0 0" fill="#fff"/><path d="m255.117188 353.96875h162.882812v36h-162.882812zm0 0" fill="#e9edf5"/><path d="m114.476562 411.40625v-324h36.003907v324zm0 0" fill="#fff"/></svg>