<svg height="512pt" viewBox="0 0 512 512" width="512pt" xmlns="http://www.w3.org/2000/svg" xmlns:xlink="http://www.w3.org/1999/xlink"><linearGradient id="a" gradientUnits="userSpaceOnUse" x1="0" x2="512" y1="256" y2="256"><stop offset="0" stop-color="#00f38d"/><stop offset="1" stop-color="#009eff"/></linearGradient><path d="m512 256c0 141.386719-114.613281 256-256 256s-256-114.613281-256-256 114.613281-256 256-256 256 114.613281 256 256zm0 0" fill="url(#a)"/><path d="m418.085938 170.617188v-76.703126h-77.324219v30h27.355469l-108.066407 108.066407-87.085937-87.082031-49.050782 51.355468v-99.804687h-30v321.636719h321.636719v-30h-291.636719v-74.988282l45.648438-48 49.898438 49.898438 40.589843-40.589844 65.128907 65.128906 62.90625-62.902344v24.238282h30v-76.699219h-77.324219v30h27.355469l-42.9375 42.9375-43.917969-43.914063 106.824219-106.824218v24.242187h30zm-198.625 101.953124-50.441407-50.441406-45.105469 47.433594v-29.878906l49.542969-51.867188 65.378907 65.378906zm0 0" fill="#fff"/></svg>