<svg xmlns="http://www.w3.org/2000/svg" width="1949.883" height="479.684" viewBox="0 0 1949.883 479.684">
  <g id="Groupe_2053" data-name="Groupe 2053" transform="translate(-404.331 -18.5)">
    <path id="Tracé_356" data-name="Tracé 356" d="M370.958,20.229a84.024,84.024,0,0,0-77,118.114,60.508,60.508,0,0,0,7.974-5.98l17.194-17.194a49.653,49.653,0,0,1-1-10.466,53.077,53.077,0,1,1,53.077,53.077,70.908,70.908,0,0,1-10.217-1l-17.443,17.443c-2.492,2.492-5.233,4.735-7.725,6.977a82.305,82.305,0,0,0,35.384,7.725A84.28,84.28,0,0,0,455.432,104.7c-.249-46.6-38.125-84.474-84.474-84.474Zm10.964,73.51a15.949,15.949,0,0,1,0,22.178L333.58,164.258A84.225,84.225,0,1,1,274.025,20.478a15.7,15.7,0,1,1,0,31.4,53.077,53.077,0,1,0,37.627,90.7l48.093-48.841a15.461,15.461,0,0,1,10.964-4.485,14.66,14.66,0,0,1,11.213,4.485Z" transform="translate(687.487 159.993)" fill="#80d33a"/>
    <path id="Tracé_357" data-name="Tracé 357" d="M706.258,79.153c-9.22-9.22-22.178-14.453-36.63-14.453a67.956,67.956,0,0,0-35.384,10.466l-1,.5-.5-1A15.94,15.94,0,0,0,617.8,64.7a16.165,16.165,0,0,0-16.2,16.2V211.471a16.2,16.2,0,0,0,32.395,0V127.744c0-10.217,8.472-18.689,15.7-23.922a34.72,34.72,0,0,1,19.686-6.728c5.731,0,10.715,1.744,13.954,4.735a16.434,16.434,0,0,0,11.463,4.734,16.038,16.038,0,0,0,11.213-4.485,15.681,15.681,0,0,0,4.734-8.223,16.772,16.772,0,0,0,.5-3.489,16.1,16.1,0,0,0-4.983-11.213Z" transform="translate(1301.836 115.023)" fill="#fff"/>
    <g id="Groupe_286" data-name="Groupe 286" transform="translate(404.331 99.957)">
      <path id="Tracé_356-2" data-name="Tracé 356" d="M167.453,247.016a50.336,50.336,0,1,1,50.336-50.336,50.355,50.355,0,0,1-50.336,50.336Zm81.484-52.827c-1.246-42.611-36.132-77.5-78.743-78.743a81.705,81.705,0,0,0-84.225,84.225c1.246,42.611,36.132,77.5,78.743,78.743a81.562,81.562,0,0,0,84.225-84.225ZM72.762,36.454c-7.725-8.223-21.679-1.993-21.679,9.22V78.816h0L72.015,57.884C77.5,52.4,78.494,43.431,73.759,37.451c-.249-.249-.748-.5-1-1ZM15.2,32.716A15.1,15.1,0,0,0,0,47.917v215.8a15.1,15.1,0,0,0,15.2,15.2,15.1,15.1,0,0,0,15.2-15.2V47.917a15.426,15.426,0,0,0-15.2-15.2ZM1279.323,260.223a16.548,16.548,0,0,1-15.948,16.7c-8.971.249-16.7-5.482-16.7-14.951V172.261c0-19.935-10.715-30.65-27.909-30.65a35.533,35.533,0,0,0-12.459,2.243c-17.194,5.98-28.158,22.676-28.158,40.867v77.746c0,9.22-7.226,14.951-16.2,14.951s-16.2-5.731-16.2-14.951V172.261c0-19.935-10.715-30.65-27.909-30.65a35.532,35.532,0,0,0-12.459,2.243c-17.194,5.98-28.158,22.676-28.158,40.867v75.5a16.549,16.549,0,0,1-15.948,16.7c-8.971.249-16.7-5.482-16.7-14.951V129.65c0-9.22,7.476-15.2,16.7-14.951a16.549,16.549,0,0,1,15.948,16.7v8.223c9.469-14.951,28.158-26.912,49.09-26.912,21.181,0,38.375,11.463,46.349,29.155A63.977,63.977,0,0,1,1226,112.705c32.644,0,53.326,21.928,53.326,57.064Zm-271.862,0a16.548,16.548,0,0,1-15.948,16.7c-8.971.249-16.7-5.482-16.7-14.951V172.261c0-19.935-10.715-30.65-27.909-30.65a35.532,35.532,0,0,0-12.459,2.243c-17.194,5.98-28.158,22.676-28.158,40.867v77.746c0,9.22-7.227,14.951-16.2,14.951s-16.2-5.731-16.2-14.951V172.261c0-19.935-10.715-30.65-27.909-30.65a35.531,35.531,0,0,0-12.459,2.243c-17.194,5.98-28.158,22.676-28.158,40.867v75.5a16.549,16.549,0,0,1-15.948,16.7c-8.971.249-16.7-5.482-16.7-14.951V129.65c0-9.22,7.476-15.2,16.7-14.951a16.548,16.548,0,0,1,15.948,16.7v8.223c9.469-14.951,28.158-26.912,49.09-26.912,21.181,0,38.375,11.463,46.349,29.155,11.213-17.194,31.148-29.155,53.326-29.155,32.643,0,53.326,21.928,53.326,57.064Zm-595.8-62.795a50.336,50.336,0,1,1-50.336-50.336,50.2,50.2,0,0,1,50.336,50.336ZM358.828,115.7c-42.86,1.246-77.5,36.132-78.992,78.992v2.741h0V396.777a15.7,15.7,0,1,0,31.4,0V261.718a81.535,81.535,0,0,0,53.077,17.443c42.86-1.246,77.5-36.132,78.992-78.992,1.246-47.345-37.378-85.969-84.474-84.474Zm1244.935,11.712c-9.22-9.22-22.178-14.453-36.63-14.453a67.956,67.956,0,0,0-35.384,10.466l-1,.5-.5-1a15.94,15.94,0,0,0-14.951-9.967,16.165,16.165,0,0,0-16.2,16.2V259.725a16.2,16.2,0,1,0,32.394,0V176c0-10.217,8.473-18.689,15.7-23.922a34.72,34.72,0,0,1,19.686-6.728c5.731,0,10.715,1.744,13.954,4.735a16.434,16.434,0,0,0,11.463,4.735,16.039,16.039,0,0,0,11.213-4.485,15.682,15.682,0,0,0,4.735-8.223,16.829,16.829,0,0,0,.5-3.489,16.105,16.105,0,0,0-4.984-11.213Zm130.823,101.668a60.832,60.832,0,0,1-9.967,7.974,41.963,41.963,0,0,1-11.961,4.984,50.579,50.579,0,0,1-32.643-1.993,45.183,45.183,0,0,1-15.7-10.715,49.3,49.3,0,0,1-14.7-35.135,47.637,47.637,0,0,1,3.987-19.437,45.186,45.186,0,0,1,10.715-15.7,51.708,51.708,0,0,1,15.7-10.715,50.781,50.781,0,0,1,44.6,2.99,43.838,43.838,0,0,1,9.967,7.974,15.682,15.682,0,0,0,22.178-22.178,80.67,80.67,0,0,0-16.446-12.708A81.909,81.909,0,0,0,1699.2,113.2a81.7,81.7,0,0,0-31.647,6.479,78.2,78.2,0,0,0-25.666,17.443,85.194,85.194,0,0,0-17.443,25.666,80.775,80.775,0,0,0-6.479,31.647,81.7,81.7,0,0,0,6.479,31.647,78.2,78.2,0,0,0,17.443,25.666,85.2,85.2,0,0,0,25.666,17.443,80.776,80.776,0,0,0,31.647,6.479,79.845,79.845,0,0,0,21.679-2.99,89.313,89.313,0,0,0,19.437-8.223,80.667,80.667,0,0,0,16.446-12.708,15.95,15.95,0,0,0,0-22.178,15.087,15.087,0,0,0-22.178-.5Z" transform="translate(0 -32.689)" fill="#004271"/>
      <path id="Tracé_358" data-name="Tracé 358" d="M689.468,146.184a80.772,80.772,0,0,0-6.479-31.647,81.446,81.446,0,0,0-43.358-43.358,80.531,80.531,0,0,0-63.294,0,81.442,81.442,0,0,0-43.358,43.358,80.773,80.773,0,0,0-6.479,31.647v2.492A82.168,82.168,0,0,0,550.422,204a79.229,79.229,0,0,0,25.916,17.443,80.532,80.532,0,0,0,63.294,0A79.227,79.227,0,0,0,665.546,204a16.034,16.034,0,0,0-22.676-22.676,51.712,51.712,0,0,1-15.7,10.715,49.476,49.476,0,0,1-38.624,0,45.194,45.194,0,0,1-15.7-10.715,48.853,48.853,0,0,1-10.715-15.7c-.249-.748-.5-1.246-.748-1.993H673.271a15.9,15.9,0,0,0,15.949-15.948v-.748A.918.918,0,0,0,689.468,146.184ZM573.1,111.3a48.828,48.828,0,0,1,15.7-10.715,49.476,49.476,0,0,1,38.624,0,45.185,45.185,0,0,1,15.7,10.715A48.838,48.838,0,0,1,653.834,127c.5,1.5,1.246,2.99,1.744,4.485H561.137A33.233,33.233,0,0,1,562.881,127,38.152,38.152,0,0,1,573.1,111.3Z" transform="translate(785.466 15.067)" fill="#004271"/>
      <path id="Tracé_360" data-name="Tracé 360" d="M880.068,146.184a80.789,80.789,0,0,0-6.478-31.647A81.451,81.451,0,0,0,830.23,71.179a80.529,80.529,0,0,0-63.293,0,81.445,81.445,0,0,0-43.358,43.358,80.773,80.773,0,0,0-6.479,31.647v2.492A82.162,82.162,0,0,0,741.022,204a79.229,79.229,0,0,0,25.916,17.443,80.53,80.53,0,0,0,63.293,0A79.219,79.219,0,0,0,856.146,204a16.034,16.034,0,1,0-22.675-22.676,51.718,51.718,0,0,1-15.7,10.715,49.477,49.477,0,0,1-38.624,0,45.181,45.181,0,0,1-15.7-10.715,48.856,48.856,0,0,1-10.716-15.7c-.249-.748-.5-1.246-.747-1.993H863.872a15.9,15.9,0,0,0,15.947-15.948v-.748A.916.916,0,0,0,880.068,146.184ZM763.7,111.3a48.839,48.839,0,0,1,15.7-10.715,49.476,49.476,0,0,1,38.624,0,45.185,45.185,0,0,1,15.7,10.715A48.847,48.847,0,0,1,844.435,127c.5,1.5,1.245,2.99,1.744,4.485H751.737A33.236,33.236,0,0,1,753.481,127,40.816,40.816,0,0,1,763.7,111.3Z" transform="translate(1069.815 15.067)" fill="#004271"/>
    </g>
    <g id="Groupe_287" data-name="Groupe 287" transform="translate(877.038 411.716)">
      <path id="Tracé_361" data-name="Tracé 361" d="M216.861,218.853c-13.955,0-21.181-11.712-21.181-27.66s7.226-27.66,21.181-27.66,21.181,11.712,21.181,27.66-7.227,27.66-21.181,27.66Zm0-60.552c-17.941,0-27.161,13.955-27.161,32.893s9.22,32.893,27.161,32.893,27.161-13.954,27.161-32.893S234.554,158.3,216.861,158.3Z" transform="translate(-189.7 -157.054)" fill="#004271"/>
      <path id="Tracé_362" data-name="Tracé 362" d="M236.386,208.211c-5.482,0-11.463-2.99-14.2-8.223v-21.43a16.856,16.856,0,0,1,14.2-8.223c9.718,0,15.7,7.226,15.7,18.938s-5.98,18.938-15.7,18.938Zm.5-42.611c-6.479,0-12.21,3.239-14.7,6.977v-3.738a2.741,2.741,0,0,0-5.482,0V229.89a2.741,2.741,0,1,0,5.482,0V206.217c2.741,3.738,8.472,6.977,14.7,6.977,12.21,0,20.682-9.22,20.682-23.922.249-14.7-8.223-23.673-20.682-23.673Z" transform="translate(-149.42 -146.163)" fill="#004271"/>
      <path id="Tracé_363" data-name="Tracé 363" d="M242.781,186.432c.748-9.469,6.479-15.7,14.951-15.7s14.2,6.479,14.951,15.7Zm35.883,1.993c-.249-13.705-8.721-22.925-20.932-22.925-12.459,0-20.932,9.718-20.932,23.922,0,14.7,8.722,23.922,21.928,23.922,6.479,0,12.708-2.492,16.446-7.226a2.692,2.692,0,0,0,.748-1.744,2.765,2.765,0,0,0-2.741-2.741c-1,0-1.5.5-2.243,1.246a15.835,15.835,0,0,1-12.21,5.233c-9.22,0-15.7-6.479-16.2-17.194h33.142a2.4,2.4,0,0,0,2.99-2.492Z" transform="translate(-119.433 -146.313)" fill="#004271"/>
      <path id="Tracé_364" data-name="Tracé 364" d="M247.686,171.607a2.574,2.574,0,0,1-1.994,1,2.458,2.458,0,0,1-2.492-2.243,2.263,2.263,0,0,1,.748-1.744l8.722-9.22a2.574,2.574,0,0,1,1.993-1,2.879,2.879,0,0,1,2.99,2.99,2.617,2.617,0,0,1-1.246,2.243Z" transform="translate(-109.886 -156.905)" fill="#004271"/>
      <path id="Tracé_365" data-name="Tracé 365" d="M277.238,170.584c-5.98,0-11.961,4.984-13.456,12.21V210.2a2.741,2.741,0,0,1-5.482,0V168.839a2.741,2.741,0,0,1,5.482,0v5.233a15.165,15.165,0,0,1,13.456-8.472,10.266,10.266,0,0,1,2.99.249,2.263,2.263,0,0,1,1.994,2.492,2.307,2.307,0,0,1-2.741,2.492,5.529,5.529,0,0,0-2.243-.249Z" transform="translate(-87.358 -146.163)" fill="#004271"/>
      <path id="Tracé_366" data-name="Tracé 366" d="M302.345,199.24c-1.993,5.482-8.721,8.971-15.2,8.971s-11.462-2.99-11.462-8.722,4.236-8.971,12.459-8.971a81.464,81.464,0,0,1,14.2,1.246Zm-12.21-33.64c-6.977,0-12.708,2.741-16.446,7.725a3.313,3.313,0,0,0-.748,1.994,3,3,0,0,0,2.99,2.741,2.54,2.54,0,0,0,1.993-1.246,14.2,14.2,0,0,1,11.961-5.98c7.725,0,12.459,3.738,12.459,10.715v5.98a82.2,82.2,0,0,0-14.453-1.246c-11.213,0-17.692,5.233-17.692,13.954s6.977,13.456,16.446,13.456c6.728,0,13.207-3.24,15.7-7.476v4.236a2.741,2.741,0,0,0,5.482,0V181.8c.249-10.466-6.479-16.2-17.692-16.2Z" transform="translate(-69.605 -146.163)" fill="#004271"/>
      <path id="Tracé_367" data-name="Tracé 367" d="M316.858,218.26a2.181,2.181,0,0,1-1.993,2.243,24.17,24.17,0,0,1-4.236.249c-8.971,0-13.456-4.236-13.456-13.954V179.387h-5.98a2.492,2.492,0,1,1,0-4.984h5.98V162.941a2.741,2.741,0,1,1,5.482,0V174.4h10.715a2.492,2.492,0,1,1,0,4.984H302.654V206.05c0,6.977,2.741,9.718,8.721,9.718a8.474,8.474,0,0,0,2.492-.249c1.744,0,2.99.748,2.99,2.741Z" transform="translate(-42.006 -154.22)" fill="#004271"/>
      <path id="Tracé_368" data-name="Tracé 368" d="M308.58,186.432c.748-9.469,6.479-15.7,14.951-15.7s14.2,6.479,14.952,15.7Zm35.883,1.993c-.25-13.705-8.722-22.925-20.932-22.925-12.459,0-20.931,9.718-20.931,23.922,0,14.7,8.721,23.922,21.928,23.922,6.479,0,12.708-2.492,16.446-7.226a2.692,2.692,0,0,0,.748-1.744,2.766,2.766,0,0,0-2.741-2.741c-1,0-1.495.5-2.242,1.246a15.835,15.835,0,0,1-12.21,5.233c-9.22,0-15.7-6.479-16.2-17.194h33.142a2.4,2.4,0,0,0,2.99-2.492Z" transform="translate(-21.269 -146.313)" fill="#004271"/>
      <path id="Tracé_369" data-name="Tracé 369" d="M324.149,168.441a2.741,2.741,0,0,1,5.482,0V195.6c0,7.974,4.735,12.459,11.463,12.459a17.781,17.781,0,0,0,15.7-9.967V168.441a2.741,2.741,0,1,1,5.482,0v41.365a2.741,2.741,0,1,1-5.482,0v-4.984c-3.24,4.734-9.22,8.223-16.7,8.223-9.968,0-16.2-6.728-16.2-16.945v-27.66Z" transform="translate(10.508 -146.014)" fill="#004271"/>
      <path id="Tracé_370" data-name="Tracé 370" d="M364.338,170.584c-5.98,0-11.96,4.984-13.456,12.21V210.2a2.741,2.741,0,1,1-5.482,0V168.839a2.741,2.741,0,1,1,5.482,0v5.233a15.166,15.166,0,0,1,13.456-8.472,10.267,10.267,0,0,1,2.991.249,2.264,2.264,0,0,1,1.993,2.492,2.306,2.306,0,0,1-2.741,2.492,6.9,6.9,0,0,0-2.243-.249Z" transform="translate(42.583 -146.163)" fill="#004271"/>
      <path id="Tracé_371" data-name="Tracé 371" d="M404.235,211.624c-2.741,4.984-8.722,7.974-14.2,7.974-9.718,0-15.7-6.977-15.7-18.938s5.98-18.938,15.7-18.938c5.482,0,11.463,2.99,14.2,7.974Zm2.99-53.824a2.614,2.614,0,0,0-2.741,2.741v23.673c-2.741-3.738-8.472-6.977-14.7-6.977-12.21,0-20.682,9.22-20.682,23.922s8.472,23.922,20.682,23.922c6.479,0,12.21-3.239,14.7-6.977v3.738a2.741,2.741,0,0,0,5.482,0V160.79a2.688,2.688,0,0,0-2.741-2.99Z" transform="translate(77.94 -157.8)" fill="#004271"/>
      <path id="Tracé_372" data-name="Tracé 372" d="M396.281,186.432c.748-9.469,6.479-15.7,14.951-15.7s14.2,6.479,14.951,15.7Zm35.883,1.993c-.249-13.705-8.721-22.925-20.931-22.925-12.459,0-20.932,9.718-20.932,23.922,0,14.7,8.722,23.922,21.928,23.922,6.479,0,12.708-2.492,16.447-7.226a2.694,2.694,0,0,0,.748-1.744,2.766,2.766,0,0,0-2.741-2.741c-1,0-1.495.5-2.492,1.246a15.835,15.835,0,0,1-12.21,5.233c-9.22,0-15.7-6.479-16.2-17.194h33.142a2.6,2.6,0,0,0,3.239-2.492Z" transform="translate(109.567 -146.313)" fill="#004271"/>
      <path id="Tracé_373" data-name="Tracé 373" d="M463.581,208.211c-9.22,0-15.45-6.977-15.45-18.938s6.479-18.938,15.45-18.938c9.219,0,15.449,6.977,15.449,18.938s-6.23,18.938-15.449,18.938Zm0-42.611c-12.21,0-21.181,8.971-21.181,23.922s8.971,23.922,21.181,23.922,21.181-8.971,21.181-23.922c0-15.2-8.971-23.922-21.181-23.922Z" transform="translate(187.294 -146.163)" fill="#004271"/>
      <path id="Tracé_374" data-name="Tracé 374" d="M530.684,210.1a2.741,2.741,0,0,1-5.482,0V182.2c0-7.476-3.987-11.712-10.466-11.712-5.482,0-11.712,4.236-14.453,9.967V210.1a2.741,2.741,0,0,1-5.482,0V182.2c0-7.476-3.987-11.712-10.466-11.712-5.482,0-11.712,4.236-14.453,9.967V210.1a2.741,2.741,0,0,1-5.482,0V168.74A2.615,2.615,0,0,1,467.141,166a2.493,2.493,0,0,1,2.741,2.741v5.233a19.1,19.1,0,0,1,15.45-8.472c6.728,0,11.712,3.489,13.705,8.971a20.186,20.186,0,0,1,16.446-8.971c9.469,0,15.2,6.479,15.2,16.446Z" transform="translate(220.115 -146.313)" fill="#004271"/>
      <path id="Tracé_375" data-name="Tracé 375" d="M516.586,208.211c-5.482,0-11.463-2.99-14.2-8.223v-21.43a16.857,16.857,0,0,1,14.2-8.223c9.718,0,15.7,7.226,15.7,18.938s-6.23,18.938-15.7,18.938Zm.5-42.611c-6.479,0-12.21,3.239-14.7,6.977v-3.738a2.741,2.741,0,1,0-5.482,0V229.89a2.741,2.741,0,1,0,5.482,0V206.217c2.741,3.738,8.472,6.977,14.7,6.977,12.21,0,20.682-9.22,20.682-23.922S529.294,165.6,517.084,165.6Z" transform="translate(268.6 -146.163)" fill="#004271"/>
      <path id="Tracé_376" data-name="Tracé 376" d="M522.981,186.432c.748-9.469,6.479-15.7,14.951-15.7s14.2,6.479,14.951,15.7Zm35.882,1.993c-.249-13.705-8.722-22.925-20.931-22.925-12.459,0-20.932,9.718-20.932,23.922,0,14.7,8.722,23.922,21.928,23.922,6.479,0,12.708-2.492,16.446-7.226a2.694,2.694,0,0,0,.748-1.744,2.765,2.765,0,0,0-2.741-2.741c-1,0-1.5.5-2.243,1.246a15.835,15.835,0,0,1-12.21,5.233c-9.22,0-15.7-6.479-16.2-17.194h33.141a2.4,2.4,0,0,0,2.991-2.492Z" transform="translate(298.586 -146.313)" fill="#004271"/>
      <path id="Tracé_377" data-name="Tracé 377" d="M527.785,171.607a2.573,2.573,0,0,1-1.993,1,2.459,2.459,0,0,1-2.492-2.243,2.264,2.264,0,0,1,.748-1.744l8.722-9.22a2.573,2.573,0,0,1,1.993-1,2.879,2.879,0,0,1,2.99,2.99,2.618,2.618,0,0,1-1.246,2.243Z" transform="translate(307.985 -156.905)" fill="#004271"/>
      <path id="Tracé_378" data-name="Tracé 378" d="M564.258,218.26a2.182,2.182,0,0,1-1.994,2.243,24.167,24.167,0,0,1-4.236.249c-8.971,0-13.457-4.236-13.457-13.954V179.387h-5.98a2.492,2.492,0,0,1,0-4.984h5.98V162.941a2.741,2.741,0,0,1,5.482,0V174.4h10.714a2.492,2.492,0,1,1,0,4.984H550.055V206.05c0,6.977,2.74,9.718,8.721,9.718a8.477,8.477,0,0,0,2.492-.249c1.5,0,2.99.748,2.99,2.741Z" transform="translate(327.081 -154.22)" fill="#004271"/>
      <path id="Tracé_379" data-name="Tracé 379" d="M555.981,186.432c.748-9.469,6.479-15.7,14.951-15.7s14.2,6.479,14.951,15.7Zm35.882,1.993c-.249-13.705-8.722-22.925-20.932-22.925-12.459,0-20.932,9.718-20.932,23.922,0,14.7,8.721,23.922,21.928,23.922,6.479,0,12.708-2.492,16.446-7.226a2.694,2.694,0,0,0,.748-1.744,2.766,2.766,0,0,0-2.741-2.741c-1,0-1.5.5-2.243,1.246a15.836,15.836,0,0,1-12.21,5.233c-9.22,0-15.7-6.479-16.2-17.194h33.141a2.5,2.5,0,0,0,2.991-2.492Z" transform="translate(347.818 -146.313)" fill="#004271"/>
      <path id="Tracé_380" data-name="Tracé 380" d="M609.726,210.1a2.741,2.741,0,0,1-5.482,0V182.943c0-7.974-4.734-12.459-11.462-12.459a17.781,17.781,0,0,0-15.7,9.968V210.1a2.741,2.741,0,1,1-5.482,0V168.74a2.741,2.741,0,1,1,5.482,0v4.984c3.239-4.735,9.22-8.223,16.695-8.223,9.968,0,16.2,6.728,16.2,16.945V210.1Z" transform="translate(380.043 -146.313)" fill="#004271"/>
      <path id="Tracé_381" data-name="Tracé 381" d="M612.781,165.6c7.973,0,14.2,3.738,17.692,9.469.25.748.748,1.246.748,1.744a2.828,2.828,0,0,1-2.991,2.741,2.741,2.741,0,0,1-2.492-1.495c-2.243-4.735-6.977-7.476-12.708-7.476-9.22,0-15.45,7.227-15.45,18.938s6.479,18.938,15.45,18.938a13.9,13.9,0,0,0,12.708-7.475,2.5,2.5,0,0,1,2.492-1.5,2.828,2.828,0,0,1,2.991,2.741,2.694,2.694,0,0,1-.748,1.745c-3.489,5.98-9.469,9.469-17.692,9.469-12.709,0-21.182-9.22-21.182-23.922s8.722-23.922,21.182-23.922Z" transform="translate(409.88 -146.163)" fill="#004271"/>
      <path id="Tracé_382" data-name="Tracé 382" d="M616.98,186.432c.748-9.469,6.479-15.7,14.952-15.7s14.2,6.479,14.951,15.7Zm35.883,1.993c-.249-13.705-8.722-22.925-20.931-22.925-12.46,0-20.932,9.718-20.932,23.922,0,14.7,8.721,23.922,21.928,23.922,6.479,0,12.708-2.492,16.446-7.226a2.694,2.694,0,0,0,.748-1.744,2.765,2.765,0,0,0-2.741-2.741c-1,0-1.5.5-2.243,1.246a15.836,15.836,0,0,1-12.21,5.233c-9.22,0-15.7-6.479-16.2-17.194h33.142a2.4,2.4,0,0,0,2.991-2.492Z" transform="translate(438.821 -146.313)" fill="#004271"/>
      <path id="Tracé_383" data-name="Tracé 383" d="M649.292,208.36c6.479,0,11.462-2.741,11.462-7.974,0-4.734-2.741-6.977-9.718-8.472l-4.734-1c-9.718-1.994-14.7-5.233-14.7-12.708s6.479-12.709,16.2-12.709c8.223,0,13.954,3.489,16.2,8.971a2.252,2.252,0,0,1,.249,1.246,2.8,2.8,0,0,1-2.99,2.492,3.38,3.38,0,0,1-2.741-1.744c-1.745-3.987-5.731-5.981-10.964-5.981-6.479,0-10.466,2.99-10.466,7.476,0,4.236,2.741,6.479,9.718,7.974l4.735,1c10.465,1.994,14.7,5.98,14.7,13.207,0,7.725-6.978,13.207-16.945,13.207-8.722,0-14.7-3.489-17.194-9.718a2.244,2.244,0,0,1-.25-1.246,2.805,2.805,0,0,1,2.991-2.492,3.064,3.064,0,0,1,2.741,1.744c1.5,4.485,5.732,6.728,11.712,6.728Z" transform="translate(469.554 -146.313)" fill="#004271"/>
      <path id="Tracé_384" data-name="Tracé 384" d="M443.781,165.6c7.974,0,14.2,3.738,17.692,9.469.249.748.747,1.246.747,1.744a2.828,2.828,0,0,1-2.99,2.741,2.74,2.74,0,0,1-2.491-1.495c-2.243-4.735-6.978-7.476-12.708-7.476-9.22,0-15.45,7.227-15.45,18.938s6.479,18.938,15.45,18.938a13.9,13.9,0,0,0,12.708-7.475,2.5,2.5,0,0,1,2.491-1.5,2.828,2.828,0,0,1,2.99,2.741,2.693,2.693,0,0,1-.747,1.745c-3.489,5.98-9.469,9.469-17.692,9.469-12.708,0-21.181-9.22-21.181-23.922s8.472-23.922,21.181-23.922Z" transform="translate(157.754 -146.163)" fill="#004271"/>
    </g>
    <path id="Tracé_867" data-name="Tracé 867" d="M320.024,21.43C268.193,33.142,226.08,84.723,226.08,136.8l94.193-21.43C372.1,103.662,414.216,52.08,414.216,0Z" transform="translate(941.258 18.5)" fill="#80d33a"/>
  </g>
</svg>
