<svg xmlns="http://www.w3.org/2000/svg" width="101" height="70" viewBox="0 0 101 70">
  <defs>
    <linearGradient id="linearGradient-1" x1="-12.852%" x2="76.269%" y1="79.567%" y2="-17.638%">
      <stop offset="0%" stop-color="#00AEBD"/>
      <stop offset="100%" stop-color="#80BC00"/>
    </linearGradient>
    <linearGradient id="linearGradient-2" x1="-12.626%" x2="76.495%" y1="79.322%" y2="-17.883%">
      <stop offset="0%" stop-color="#00AEBD"/>
      <stop offset="100%" stop-color="#80BC00"/>
    </linearGradient>
    <linearGradient id="linearGradient-3" x1="23.541%" x2="112.863%" y1="117.384%" y2="20.622%">
      <stop offset="0%" stop-color="#00AEBD"/>
      <stop offset="100%" stop-color="#80BC00"/>
    </linearGradient>
    <linearGradient id="linearGradient-4" x1="23.426%" x2="112.748%" y1="117.508%" y2="20.746%">
      <stop offset="0%" stop-color="#00AEBD"/>
      <stop offset="100%" stop-color="#80BC00"/>
    </linearGradient>
  </defs>
  <g fill="none" fill-rule="evenodd">
    <g fill="#1A1919" transform="translate(5.6 14.7)">
      <path d="M7.39213526 27.4924219L1.6290897 15.8575515 1.6290897 27.1738267C1.6290897 27.3998816 1.54928568 27.5935436 1.38983079 27.7542714 1.23014615 27.9154631 1.03860117 27.9960203.814583145 27.9960203.590565122 27.9960203.398713788 27.9154631.239258908 27.7542714.0795742655 27.5935436-3.55271368e-15 27.3998816-3.55271368e-15 27.1738267L-3.55271368e-15 12.3732597C-3.55271368e-15 12.1471275.0795742655 11.9534655.239258908 11.7927377.398713788 11.631546.590565122 11.5509888.814583145 11.5509888 1.14038577 11.5509888 1.3813296 11.6948631 1.53749122 11.9826888L8.14560169 25.3339994 14.7537887 11.9826888C14.9097972 11.6948631 15.1508942 11.5509888 15.4767734 11.5509888 15.7007148 11.5509888 15.8923364 11.631546 16.0520211 11.7927377 16.2114759 11.9534655 16.29128 12.1471275 16.29128 12.3732597L16.29128 27.1738267C16.29128 27.3998816 16.2114759 27.5935436 16.0520211 27.7542714 15.8923364 27.9154631 15.7007148 27.9960203 15.4767734 27.9960203 15.2527554 27.9960203 15.0609041 27.9154631 14.9014492 27.7542714 14.7417645 27.5935436 14.6621903 27.3998816 14.6621903 27.1738267L14.6621903 15.8575515 8.84821412 27.5952444C8.70560846 27.8624283 8.4714809 27.9960203 8.14560169 27.9960203 7.80616652 27.9960203 7.55503657 27.8282572 7.39213526 27.4924219M23.6223751 18.1290014C22.4954687 18.1290014 21.5350632 18.5298546 20.7408523 19.331561 19.9466414 20.1332674 19.549536 21.1030461 19.549536 22.2402786 19.549536 23.3778203 19.9466414 24.3472898 20.7408523 25.1489962 21.5350632 25.9506253 22.4954687 26.3515558 23.6223751 26.3515558 24.7491283 26.3515558 25.709687 25.9506253 26.5038979 25.1489962 27.2981088 24.3472898 27.6952142 23.3778203 27.6952142 22.2402786 27.6952142 21.1030461 27.2981088 20.1332674 26.5038979 19.331561 25.709687 18.5298546 24.7491283 18.1290014 23.6223751 18.1290014zM29.3243805 22.2402786C29.3243805 23.8301621 28.7675904 25.1868009 27.6544698 26.3104268 26.5411959 27.4344392 25.1971644 27.9960203 23.6223751 27.9960203 22.0474327 27.9960203 20.7034011 27.4344392 19.5902804 26.3104268 18.4770066 25.1868009 17.9204463 23.8301621 17.9204463 22.2402786 17.9204463 20.6508589 18.4770066 19.2941429 19.5902804 18.1701304 20.7034011 17.0465045 22.0474327 16.4845369 23.6223751 16.4845369 25.1971644 16.4845369 26.5411959 17.0465045 27.6544698 18.1701304 28.7675904 19.2941429 29.3243805 20.6508589 29.3243805 22.2402786L29.3243805 22.2402786zM36.6553991 26.3515558C37.7821523 26.3515558 38.7427875 25.9506253 39.5369218 25.1489962 40.3311328 24.3472898 40.7282382 23.3778203 40.7282382 22.2402786 40.7282382 21.1030461 40.3311328 20.1332674 39.5369218 19.331561 38.7427875 18.5298546 37.7821523 18.1290014 36.6553991 18.1290014 35.5284927 18.1290014 34.5680872 18.5298546 33.7738763 19.331561 32.979742 20.1332674 32.5826365 21.1030461 32.5826365 22.2402786 32.5826365 23.3778203 32.979742 24.3472898 33.7738763 25.1489962 34.5680872 25.9506253 35.5284927 26.3515558 36.6553991 26.3515558zM32.5826365 18.2112594C32.5960393 18.1976528 32.6096719 18.1841236 32.6233044 18.1701304 33.7364251 17.0465045 35.0804566 16.4845369 36.6553991 16.4845369 38.2301883 16.4845369 39.5742199 17.0465045 40.6874937 18.1701304 41.8006144 19.2941429 42.3574045 20.6508589 42.3574045 22.2402786 42.3574045 23.8301621 41.8006144 25.1868009 40.6874937 26.3104268 39.5742199 27.4344392 38.2301883 27.9960203 36.6553991 27.9960203 35.0804566 27.9960203 33.7364251 27.4344392 32.6233044 26.3104268 31.5100306 25.1868009 30.9534702 23.8301621 30.9534702 22.2402786L30.9534702 12.3526952C30.9534702 12.126563 31.0331211 11.932901 31.1927291 11.7721732 31.352184 11.6109815 31.5440354 11.5304243 31.7680534 11.5304243 31.9920714 11.5304243 32.183693 11.6109815 32.343301 11.7721732 32.5027559 11.932901 32.5826365 12.126563 32.5826365 12.3526952L32.5826365 18.2112594 32.5826365 18.2112594zM44.8010773 17.3067305C44.8010773 17.0805983 44.8806516 16.8870136 45.0403363 16.7262858 45.1997911 16.5650941 45.3916425 16.4845369 45.6156605 16.4845369 45.8396785 16.4845369 46.0313001 16.5650941 46.1909847 16.7262858 46.3504396 16.8870136 46.4302436 17.0805983 46.4302436 17.3067305L46.4302436 27.1738267C46.4302436 27.3998816 46.3504396 27.5935436 46.1909847 27.7542714 46.0313001 27.9154631 45.8396785 27.9960203 45.6156605 27.9960203 45.3916425 27.9960203 45.1997911 27.9154631 45.0403363 27.7542714 44.8806516 27.5935436 44.8010773 27.3998816 44.8010773 27.1738267L44.8010773 17.3067305zM46.6338894 14.0177242C46.6338894 14.2989786 46.5336366 14.5402636 46.3335138 14.7421205 46.1330847 14.9444412 45.8938258 15.0455628 45.6156605 15.0455628 45.3372654 15.0455628 45.0980065 14.9444412 44.8978072 14.7421205 44.6974547 14.5402636 44.5974316 14.2989786 44.5974316 14.0177242 44.5974316 13.7369337 44.6974547 13.4951848 44.8978072 13.293328 45.0980065 13.0910846 45.3372654 12.9898856 45.6156605 12.9898856 45.8938258 12.9898856 46.1330847 13.0910846 46.3335138 13.293328 46.5336366 13.4951848 46.6338894 13.7369337 46.6338894 14.0177242L46.6338894 14.0177242zM48.8739165 12.3732597C48.8739165 12.1471275 48.9535673 11.9534655 49.1131754 11.7927377 49.2726303 11.631546 49.4644816 11.5509888 49.6884996 11.5509888 49.9124411 11.5509888 50.1040626 11.631546 50.2637473 11.7927377 50.4232022 11.9534655 50.5030062 12.1471275 50.5030062 12.3732597L50.5030062 26.3515558 51.3175893 26.3515558C51.5416074 26.3515558 51.7332289 26.432113 51.8929136 26.5933047 52.0523685 26.7540325 52.1321725 26.9476945 52.1321725 27.1738267 52.1321725 27.3998816 52.0523685 27.5935436 51.8929136 27.7542714 51.7332289 27.9154631 51.5416074 27.9960203 51.3175893 27.9960203L49.6884996 27.9960203C49.4644816 27.9960203 49.2726303 27.9154631 49.1131754 27.7542714 48.9535673 27.5935436 48.8739165 27.3998816 48.8739165 27.1738267L48.8739165 12.3732597M54.5758453 17.3067305C54.5758453 17.0805983 54.6554962 16.8870136 54.8151042 16.7262858 54.9745591 16.5650941 55.1664105 16.4845369 55.3904285 16.4845369 55.6144465 16.4845369 55.8060681 16.5650941 55.9657527 16.7262858 56.1252076 16.8870136 56.2050116 17.0805983 56.2050116 17.3067305L56.2050116 27.1738267C56.2050116 27.3998816 56.1252076 27.5935436 55.9657527 27.7542714 55.8060681 27.9154631 55.6144465 27.9960203 55.3904285 27.9960203 55.1664105 27.9960203 54.9745591 27.9154631 54.8151042 27.7542714 54.6554962 27.5935436 54.5758453 27.3998816 54.5758453 27.1738267L54.5758453 17.3067305zM56.4086574 14.0177242C56.4086574 14.2989786 56.3084046 14.5402636 56.1082818 14.7421205 55.9079293 14.9444412 55.6686703 15.0455628 55.3904285 15.0455628 55.1120334 15.0455628 54.8727745 14.9444412 54.6726518 14.7421205 54.4722226 14.5402636 54.3721995 14.2989786 54.3721995 14.0177242 54.3721995 13.7369337 54.4722226 13.4951848 54.6726518 13.293328 54.8727745 13.0910846 55.1120334 12.9898856 55.3904285 12.9898856 55.6686703 12.9898856 55.9079293 13.0910846 56.1082818 13.293328 56.3084046 13.4951848 56.4086574 13.7369337 56.4086574 14.0177242L56.4086574 14.0177242zM64.3506899 26.3515558C64.5747079 26.3515558 64.7663295 26.432113 64.9259375 26.5933047 65.0853924 26.7540325 65.165273 26.9476945 65.165273 27.1738267 65.165273 27.3998816 65.0853924 27.5935436 64.9259375 27.7542714 64.7663295 27.9154631 64.5747079 27.9960203 64.3506899 27.9960203 61.6352851 27.9960203 60.2777742 26.6257749 60.2777742 23.8848204L60.2777742 18.1290014 59.4632676 18.1290014C59.2392496 18.1290014 59.0474748 18.0484442 58.88802 17.8872525 58.7283353 17.7265247 58.6486845 17.5328627 58.6486845 17.3067305 58.6486845 17.0805983 58.7283353 16.8870136 58.88802 16.7262858 59.0474748 16.5650941 59.2392496 16.4845369 59.4632676 16.4845369L60.2777742 16.4845369 60.2777742 12.3732597C60.2777742 12.1471275 60.357425 11.9534655 60.5171097 11.7927377 60.6765645 11.631546 60.8683393 11.5509888 61.0923573 11.5509888 61.3163753 11.5509888 61.5080735 11.631546 61.6676816 11.7927377 61.8271364 11.9534655 61.9069405 12.1471275 61.9069405 12.3732597L61.9069405 16.4845369 63.5462929 16.4845369C63.7703109 16.4845369 63.9619325 16.5650941 64.1215405 16.7262858 64.2809954 16.8870136 64.360876 17.0805983 64.360876 17.3067305 64.360876 17.5328627 64.2809954 17.7265247 64.1215405 17.8872525 63.9619325 18.0484442 63.7703109 18.1290014 63.5462929 18.1290014L61.9069405 18.1290014 61.9069405 23.8848204C61.9069405 25.5292849 62.7215236 26.3515558 64.3506899 26.3515558M74.1154249 12.9488339L71.6408874 15.446416C71.4846492 15.5902903 71.297776 15.662266 71.0810338 15.662266 70.8573987 15.662266 70.6651644 15.5816315 70.5057096 15.4205171 70.3460249 15.2597893 70.2664506 15.0661274 70.2664506 14.8399951 70.2664506 14.627856 70.3342305 14.4428528 70.4700198 14.2849855L72.9444042 11.7874033C73.1075353 11.6299225 73.3005354 11.5509888 73.5249364 11.5509888 73.7485715 11.5509888 73.9400399 11.631546 74.1001075 11.7927377 74.2594092 11.9534655 74.33906 12.1471275 74.33906 12.3732597 74.33906 12.5928206 74.2647703 12.7843952 74.1154249 12.9488339zM75.8968469 21.418085C75.7475015 20.6302944 75.3745211 19.9346576 74.7771397 19.331561 73.9829288 18.5298546 73.0225233 18.1290014 71.8959233 18.1290014 70.7685574 18.1290014 69.8082285 18.5298546 69.0140942 19.331561 68.4165596 19.9346576 68.0432728 20.6302944 67.8940806 21.418085L75.8968469 21.418085zM75.0314097 25.2003301C75.2550448 25.2003301 75.4472791 25.2809646 75.6065808 25.442079 75.7658825 25.6028842 75.8462992 25.7964688 75.8462992 26.022601 75.8462992 26.2487333 75.7681801 26.4440187 75.6119419 26.6084575 74.5596316 27.5335509 73.321214 27.9960203 71.8959233 27.9960203 70.3205979 27.9960203 68.9765664 27.4344392 67.8634457 26.3104268 66.7501718 25.1868009 66.1935349 23.8301621 66.1935349 22.2402786 66.1935349 20.6508589 66.7501718 19.2941429 67.8634457 18.1701304 68.9765664 17.0465045 70.3205979 16.4845369 71.8959233 16.4845369 73.4705594 16.4845369 74.8146675 17.0465045 75.9274818 18.1701304 77.0402962 19.2941429 77.5970863 20.6508589 77.5970863 22.2402786 77.5970863 22.4664108 77.5174354 22.6600728 77.3581337 22.8208006 77.198832 22.981915 77.0065977 23.0625495 76.7829626 23.0625495L67.8940806 23.0625495C68.0432728 23.8506493 68.4165596 24.5462862 69.0140942 25.1489962 69.8082285 25.9506253 70.7685574 26.3515558 71.8959233 26.3515558 72.9137693 26.3515558 73.7891628 26.0263119 74.5221038 25.3751284 74.6714492 25.2587766 74.8414731 25.2003301 75.0314097 25.2003301L75.0314097 25.2003301zM81.2426445 22.2402786C80.6245845 22.007575 80.1933977 21.7642026 79.949084 21.510548 79.4673495 21.0311476 79.2260994 20.4518626 79.2260994 19.7735432 79.2260994 19.0951465 79.4780718 18.5027187 79.979719 17.9954094 80.9577395 16.9881353 82.2336849 16.4845369 83.808321 16.4845369 85.5123898 16.4845369 86.9721448 17.1731385 88.1868203 18.5504191 88.2955744 18.680764 88.346122 18.8418784 88.3392292 19.033453 88.3392292 19.2595852 88.2595783 19.4532472 88.1002766 19.6140523 87.9409749 19.7751667 87.7487406 19.8557239 87.5251055 19.8557239 87.3007046 19.8557239 87.1207243 19.7838255 86.9851647 19.6399512 86.849605 19.4959997 86.7508073 19.3932545 86.6895375 19.331561 85.8953265 18.5298546 84.9356869 18.1290014 83.808321 18.1290014 82.681721 18.1290014 81.7818195 18.4854786 81.1101484 19.197969 80.9470173 19.3968881 80.8658347 19.6333026 80.8658347 19.9071352 80.8865133 20.2294412 81.051942 20.4485382 81.3644184 20.56489L86.3739975 22.2402786C86.9920575 22.4733687 87.4232443 22.7167411 87.667558 22.9700865 88.1492925 23.4497961 88.3905427 24.0286946 88.3905427 24.707014 88.3905427 25.3854107 88.1393362 25.978225 87.6369231 26.4851477 86.6596684 27.4924219 85.383723 27.9960203 83.808321 27.9960203 82.0981253 27.9960203 80.6383703 27.3074186 79.4298217 25.9301381 79.3279606 25.7861866 79.2774129 25.6254587 79.2774129 25.4471042 79.2774129 25.2209719 79.3570637 25.02731 79.5171313 24.8665822 79.676433 24.7053905 79.8679014 24.6248333 80.0923024 24.6248333 80.3159375 24.6248333 80.4959178 24.696809 80.6314774 24.8406833 80.767037 24.9845575 80.8658347 25.0873027 80.9271046 25.1489962 81.7213155 25.9506253 82.681721 26.3515558 83.808321 26.3515558 84.9356869 26.3515558 85.8348225 25.9954652 86.5064937 25.2826655 86.6696247 25.0839783 86.7508073 24.8476412 86.7508073 24.573422 86.7308946 24.2515025 86.5647001 24.0324055 86.2522236 23.9155898L81.2426445 22.2402786"/>
      <g stroke="#222" stroke-width=".5" transform="translate(20)">
        <path d="M3.5.700036794C2.72702998.700036794 2.06716496.973413929 1.52033136 1.52046255.973424162 2.06714323.699970565 2.72722208.699970565 3.50003679.699970565 4.27299869.973424162 4.93293035 1.52033136 5.47961104 2.06716496 6.02665966 2.72702998 6.30003679 3.5 6.30003679 4.27289643 6.30003679 4.93283504 6.02665966 5.47966864 5.47961104 6.02657584 4.93293035 6.30002944 4.27299869 6.30002944 3.50003679 6.30002944 2.72722208 6.02657584 2.06714323 5.47966864 1.52046255 4.93283504.973413929 4.27289643.700036794 3.5.700036794zM7 3.50003679C7 4.46550329 6.65803583 5.29012352 5.97410748 5.97419185 5.29010555 6.65803942 4.46540305 7 3.5 7 2.53452336 7 1.70982087 6.65803942 1.02589252 5.97419185.341890585 5.29012352 0 4.46550329 0 3.50003679 0 2.53471748.341890585 1.70995007 1.02589252 1.02588173 1.70982087.341960578 2.53452336 0 3.5 0 4.46540305 0 5.29010555.341960578 5.97410748 1.02588173 6.65803583 1.70995007 7 2.53471748 7 3.50003679L7 3.50003679zM9.69561402.700036794L9.69561402 3.8500184 10.7391082 3.8500184C11.1709417 3.8500184 11.5398102 3.69614717 11.8457137 3.38833114 12.1514708 3.08073587 12.3043129 2.70970828 12.3043129 2.2750276 12.3043129 1.84049409 12.1514708 1.46931932 11.8457137 1.16165046 11.5398102.853834428 11.1709417.700036794 10.7391082.700036794L9.69561402.700036794zM9.34780701 0L10.7391082 0C11.3622502 0 11.8949303.222454665 12.337002.667143233 12.7789275 1.11197898 13 1.64798949 13 2.2750276 13 2.90221288 12.7789275 3.43807622 12.337002 3.88291196 11.8949303 4.32760053 11.3622502 4.55005519 10.7391082 4.55005519L9.69561402 4.55005519 9.69561402 6.6500184C9.69561402 6.7462707 9.66153537 6.82868857 9.59352432 6.89712484 9.52536702 6.96570828 9.44346125 7 9.34780701 7 9.25215277 7 9.170247 6.96570828 9.10223595 6.89712484 9.03407865 6.82868857 9 6.7462707 9 6.6500184L9 .349981603C9 .253802891 9.03407865.17138502 9.10223595.102875164 9.170247.0342917214 9.25215277 0 9.34780701 0L9.34780701 0zM20.6126124 5.6262707C20.7116375 5.6262707 20.7965704 5.66056242 20.8671836 5.72914586 20.9376452 5.79758213 20.9729518 5.88 20.9729518 5.9762523 20.9729518 6.0725046 20.9383271 6.15426018 20.869305 6.2212247 20.1996161 6.74053088 19.4444641 7 18.6036216 7 17.6095818 7 16.7605566 6.65803942 16.0563946 5.97419185 15.352081 5.29012352 15 4.46550329 15 3.50003679 15 2.53471748 15.352081 1.70995007 16.0563946 1.02588173 16.7605566.341960578 17.6095818 0 18.6036216 0 19.4624962 0 20.2266643.266901445 20.8963532.800630749 20.9653753.87068594 21 .953766097 21 1.0500184 21 1.1462707 20.9646176 1.22868857 20.8942317 1.29712484 20.8235428 1.36570828 20.7386857 1.4 20.6395848 1.4 20.5404839 1.4 20.4549449 1.36504599 20.3828922 1.29506439 19.8752652.898428384 19.2823265.700036794 18.6036216.700036794 17.8077078.700036794 17.1284726.973413929 16.5653854 1.52046255 16.002374 2.06714323 15.7206789 2.72722208 15.7206789 3.50003679 15.7206789 4.27299869 16.002374 4.93293035 16.5653854 5.47961104 17.1284726 6.02665966 17.8077078 6.30003679 18.6036216 6.30003679 19.2913426 6.30003679 19.8918578 6.09597898 20.4053945 5.6874954 20.4653248 5.64672799 20.5345742 5.6262707 20.6126124 5.6262707M26.4999632.700036794C25.7270013.700036794 25.0672168.973413929 24.520389 1.52046255 23.9734875 2.06714323 23.6999632 2.72722208 23.6999632 3.50003679 23.6999632 4.27299869 23.9734875 4.93293035 24.520389 5.47961104 25.0672168 6.02665966 25.7270013 6.30003679 26.4999632 6.30003679 27.2729251 6.30003679 27.9328568 6.02665966 28.4797582 5.47961104 29.0266597 4.93293035 29.2999632 4.27299869 29.2999632 3.50003679 29.2999632 2.72722208 29.0266597 2.06714323 28.4797582 1.52046255 27.9328568.973413929 27.2729251.700036794 26.4999632.700036794zM30 3.50003679C30 4.46550329 29.6580394 5.29012352 28.9741183 5.97419185 28.2900499 6.65803942 27.4654297 7 26.4999632 7 25.5344967 7 24.7098765 6.65803942 24.0260289 5.97419185 23.3419606 5.29012352 23 4.46550329 23 3.50003679 23 2.53471748 23.3419606 1.70995007 24.0260289 1.02588173 24.7098765.341960578 25.5344967 0 26.4999632 0 27.4654297 0 28.2900499.341960578 28.9741183 1.02588173 29.6580394 1.70995007 30 2.53471748 30 3.50003679L30 3.50003679z"/>
      </g>
    </g>
    <path fill="url(#linearGradient-1)" d="M77.7007521,62.8185156 C77.7007521,63.0733149 77.7812258,63.2845361 77.9421731,63.4507837 C78.1031205,63.6162559 78.3076891,63.6988369 78.5551268,63.6990695 L80.4127902,63.7 C80.660228,63.7 80.8640445,63.6162559 81.0249918,63.4500083 C81.1866913,63.283373 81.267917,63.0733149 81.267917,62.8185156 L81.2664129,50.5774522 L92.9448732,50.5771421 C93.1923109,50.5774522 93.3953753,50.4937081 93.5570748,50.3270728 C93.7172701,50.1619884 93.7984958,49.9518527 93.8,49.6957353 L93.7984958,47.7805539 C93.7984958,47.525522 93.7172701,47.3153863 93.5570748,47.1500692 C93.3953753,46.9836666 93.1923109,46.9 92.9448732,46.9 L78.5551268,46.9003102 C78.3076891,46.9 78.1038726,46.9836666 77.9421731,47.1503794 C77.7819779,47.3153863 77.7007521,47.525522 77.7,47.781717 L77.7007521,62.8185156 Z"/>
    <path fill="url(#linearGradient-2)" d="M84,54.0817945 L84.0007521,69.1185932 C84.0007521,69.3733149 84.0812258,69.5846137 84.2421731,69.7508613 C84.4023684,69.9163334 84.6076891,69.9988369 84.8543747,69.9991471 L86.7127902,70 C86.960228,70 87.1632924,69.9163334 87.3249918,69.7499308 C87.4866913,69.583373 87.567917,69.3733149 87.5671649,69.1185932 L87.5664129,56.8775298 L99.2448732,56.8772196 C99.4915588,56.8775298 99.6953753,56.7937857 99.8570748,56.6271504 C100.01727,56.4619884 100.098496,56.2519302 100.1,55.9957353 L100.098496,54.0805539 C100.098496,53.825522 100.01727,53.6154639 99.8570748,53.4500692 C99.6953753,53.2837441 99.4915588,53.2 99.2448732,53.2 L84.8543747,53.2003102 C84.6076891,53.2 84.4038726,53.2837441 84.2421731,53.4503019 C84.0819779,53.6154639 84.0007521,53.825522 84,54.0817945"/>
    <path fill="url(#linearGradient-3)" d="M22.4,21.5182176 L22.3991671,6.48147016 C22.3988643,6.22675557 22.3188341,6.01552122 22.1574866,5.84917222 C21.9970476,5.68375996 21.7921643,5.60124898 21.545108,5.60093674 L19.6872264,5.6 C19.4398672,5.6 19.2361196,5.68375996 19.0748477,5.8500309 C18.9131974,6.01661408 18.8319557,6.22675557 18.8322586,6.48147016 L18.83347,18.722524 L7.15496776,18.7228362 C6.90791146,18.722524 6.70416383,18.8062839 6.54258915,18.9728671 C6.38237734,19.1379671 6.30113572,19.3480306 6.3,19.6042283 L6.30113572,21.5193885 C6.30113572,21.7744154 6.38237734,21.9845568 6.5428163,22.1499691 C6.70416383,22.31624 6.90791146,22.4 7.15527062,22.4 L21.545108,22.3996878 C21.7921643,22.4 21.9959119,22.31624 22.1574866,22.1496569 C22.3176984,21.9845568 22.3988643,21.7744154 22.4,21.5182176"/>
    <path fill="url(#linearGradient-4)" d="M16.0991671,0.881470158 C16.0988643,0.626677509 16.0187584,0.415443161 15.8574866,0.249172223 C15.6970476,0.083759961 15.4921643,0.0011709221 15.245108,0.000858676208 L13.3872264,0 C13.1398672,0 12.9361196,0.083759961 12.774772,0.250030899 C12.6131974,0.416614084 12.5319557,0.626677509 12.5322586,0.881470158 L12.5333943,13.122524 L0.854967763,13.1228362 C0.607835742,13.122524 0.404088111,13.2062059 0.242513438,13.3728671 C0.0823773402,13.5379671 0.00113571701,13.7480306 0,14.0043064 L0.00113571701,15.9193885 C0.00113571701,16.1744154 0.0823773402,16.3844788 0.242816296,16.549891 C0.404088111,16.71624 0.607835742,16.8 0.855194906,16.8 L15.2450322,16.7996878 C15.4921643,16.8 15.6959119,16.71624 15.8574866,16.5495788 C16.0176984,16.3844788 16.0988643,16.1744154 16.1,15.9182176 L16.0991671,0.881470158 Z"/>
  </g>
</svg>
