<svg id="Calque_1" data-name="Calque 1" xmlns="http://www.w3.org/2000/svg" viewBox="0 0 499.81 111.03"><defs><style>.cls-1{fill:none;}.cls-2{fill:#fcb731;}.cls-3{fill:#ed505c;}.cls-4{fill:#8d8c91;}.cls-5{fill:#12244e;}</style></defs><title>Logo_Uniformation_Opco_FINAL</title><path class="cls-1" d="M101.75,105.53a163.58,163.58,0,0,0,4.76-20.08,127.36,127.36,0,0,0,1.9-20.26A72.05,72.05,0,0,0,99.87,67l-1.66.39a163.26,163.26,0,0,0-19.77,5.92,127.48,127.48,0,0,0-18.5,8.48,72.28,72.28,0,0,0,5.82,6.5l1.17,1.25a163.39,163.39,0,0,0,15,14.16,127.75,127.75,0,0,0,16.6,11.78,72,72,0,0,0,2.72-8.3Z" transform="translate(-33.28 -32.81)"/><path class="cls-2" d="M117.13,64.35c1.45-.1,2.72-.14,4.1-.13,3,0,4.77.1,4.83-.21a2.84,2.84,0,0,0-1.4-2.14,61.56,61.56,0,0,0-7.4-1.25c0,.48,0,1,0,1.44C117.22,62.83,117.18,63.6,117.13,64.35Z" transform="translate(-33.28 -32.81)"/><path class="cls-2" d="M74,122.06c1-.2,1.4-.64,1.4-1.33,0-.26-.48-5.78-.56-7.18s1.23-2.52.81-2.75a17.78,17.78,0,0,0-3.22-1.37C71.13,109,50,105.11,41.09,97.78c-4.15-3.42-3.42-10.83-3.42-10.83s-.7-.94-1.16-.49-1.39,3.41-2,5c-4.12,10.07,3.2,16,8.1,19.18,6.76,4.42,23.93,10,26.5,10.42S73,122.25,74,122.06Z" transform="translate(-33.28 -32.81)"/><path class="cls-2" d="M54.12,60.79a7.77,7.77,0,0,0,2.31-.09c.54-.11,1.83.24,1.83.12.47.24,0,0,.61.07a1.82,1.82,0,0,0,.95-.14,2,2,0,0,0,.88-.9,3.26,3.26,0,0,0,.28-.78,3.57,3.57,0,0,0,.07-.49v-.5a7,7,0,0,0-.29-2A11.18,11.18,0,0,0,58.42,52a8.14,8.14,0,0,0-2.59-2.23,13.23,13.23,0,0,0-2.43-1.15A11.14,11.14,0,0,0,50.52,48a8,8,0,0,0-1.76,0,5.3,5.3,0,0,0-2.28.86A4.24,4.24,0,0,0,45.39,50a4.15,4.15,0,0,0-.6,1.36,4.67,4.67,0,0,0-.12,1.23,5.49,5.49,0,0,0,.13,1,6.81,6.81,0,0,0,.58,1.57,9.17,9.17,0,0,0,.76,1.23,11.88,11.88,0,0,0,1.75,1.89A9.26,9.26,0,0,0,54.12,60.79Z" transform="translate(-33.28 -32.81)"/><path class="cls-3" d="M54.86,74.64c-.81-1.21-1.48-2.28-2.16-3.49-1.49-2.63-2.3-4.17-2.59-4.07a2.83,2.83,0,0,0-1.16,2.28,61.57,61.57,0,0,0,2.62,7l1.26-.7C53.5,75.33,54.18,75,54.86,74.64Z" transform="translate(-33.28 -32.81)"/><path class="cls-2" d="M48.45,78.28c-3.53,2.28-6.39,4.61-7,5.93-.93,2.17-1.17,10.64-1,11.59s.88,1.44,1.1,1.12a44.81,44.81,0,0,0,4.21-4.09,40,40,0,0,1,5.86-5.6c.7-.55,1.43-1.08,2.19-1.61.59-.41,1.2-.82,1.82-1.23q1.56-1,3.22-2l.69-.41.39-.22a127.48,127.48,0,0,1,18.5-8.48,163.26,163.26,0,0,1,19.77-5.92L99.87,67a72.05,72.05,0,0,1,8.55-1.79c0-.15,0-.3,0-.45s0-.54,0-.8q0-1.93-.12-3.79a56.2,56.2,0,0,0-8.79.91l-2.27.33a147,147,0,0,0-21,4.7,153.07,153.07,0,0,0-20.59,8.15l-.81.4c-.68.33-1.36.68-2,1.05l-1.26.7C50.49,77,49.45,77.64,48.45,78.28Z" transform="translate(-33.28 -32.81)"/><path class="cls-3" d="M126.4,83.12c-.68-.8-1.25-.89-1.85-.55-.23.12-4.77,3.31-5.93,4.08s-2.8.19-2.79.67a17.68,17.68,0,0,0,.42,3.48c.28,1.35,7.48,21.58,5.59,33-.89,5.31-7.68,8.38-7.68,8.38s-.46,1.07.16,1.24,3.65-.5,5.3-.72c10.78-1.47,12.23-10.76,12.56-16.61.45-8.06-3.34-25.71-4.22-28.16S127.07,83.92,126.4,83.12Z" transform="translate(-33.28 -32.81)"/><path class="cls-3" d="M79,125.67a3.12,3.12,0,0,0-.81.15,3.48,3.48,0,0,0-.46.18l-.23.11-.22.12a6.87,6.87,0,0,0-1.56,1.24,11.09,11.09,0,0,0-2.39,4.09,8.21,8.21,0,0,0-.64,3.36,13.3,13.3,0,0,0,.22,2.68,11.29,11.29,0,0,0,.91,2.79,8.11,8.11,0,0,0,.92,1.5,5.32,5.32,0,0,0,1.89,1.54,4.13,4.13,0,0,0,1.5.39,4.29,4.29,0,0,0,1.48-.16,4.76,4.76,0,0,0,1.13-.51,5.38,5.38,0,0,0,.8-.62,6.81,6.81,0,0,0,1.07-1.29,9.35,9.35,0,0,0,.68-1.27,11.65,11.65,0,0,0,.77-2.46,9.27,9.27,0,0,0-1-6.64,7.78,7.78,0,0,0-1.23-2c-.36-.41-.7-1.7-.81-1.64,0-.53,0,0-.24-.56a1.83,1.83,0,0,0-.6-.75A2,2,0,0,0,79,125.67Z" transform="translate(-33.28 -32.81)"/><path class="cls-4" d="M94.91,123.42c-.65,1.31-1.24,2.43-1.94,3.62-1.53,2.6-2.47,4.08-2.23,4.29a2.84,2.84,0,0,0,2.56-.14,61.39,61.39,0,0,0,4.78-5.79l-1.23-.74C96.18,124.26,95.54,123.84,94.91,123.42Z" transform="translate(-33.28 -32.81)"/><path class="cls-4" d="M104.48,41.7a43.42,43.42,0,0,0,1.44,5.69,40.19,40.19,0,0,1,1.92,7.87c.12.88.22,1.78.3,2.7.06.72.11,1.45.15,2.19q.11,1.86.12,3.79c0,.27,0,.53,0,.8s0,.3,0,.45a127.36,127.36,0,0,1-1.9,20.26,163.58,163.58,0,0,1-4.76,20.08l-.5,1.64a72,72,0,0,1-2.72,8.3l.38.23.7.4q1.68.95,3.34,1.79a56.08,56.08,0,0,0,3.61-8.07l.84-2.13a147.49,147.49,0,0,0,6.42-20.52,152.74,152.74,0,0,0,3.23-21.9c0-.3,0-.6.06-.9,0-.76.09-1.52.11-2.3,0-.48,0-1,0-1.44,0-1.23,0-2.45-.08-3.63-.21-4.2-.8-7.84-1.66-9-1.41-1.89-8.63-6.33-9.52-6.69S104.32,41.34,104.48,41.7Z" transform="translate(-33.28 -32.81)"/><path class="cls-3" d="M58.86,82.4q-1.66,1-3.22,2a56.34,56.34,0,0,0,5.18,7.16l1.43,1.8a146.91,146.91,0,0,0,14.56,15.81,153.15,153.15,0,0,0,17.35,13.75l.75.5c.63.42,1.27.84,1.93,1.24l1.23.74c1.06.62,2.13,1.21,3.18,1.75,3.74,1.92,7.19,3.23,8.62,3.06,2.34-.27,9.8-4.31,10.55-4.9s.81-1.48.42-1.52a44.31,44.31,0,0,0-5.65-1.6,40,40,0,0,1-7.78-2.27c-.82-.33-1.65-.7-2.49-1.09-.65-.31-1.31-.63-2-1q-1.66-.84-3.34-1.79l-.7-.4-.38-.23a127.75,127.75,0,0,1-16.6-11.78,163.39,163.39,0,0,1-15-14.16l-1.17-1.25a72.28,72.28,0,0,1-5.82-6.5l-.39.22Z" transform="translate(-33.28 -32.81)"/><path class="cls-4" d="M66.93,59.1c.22.13,5.25,2.47,6.5,3.1s1.57,2.33,2,2.08a17.67,17.67,0,0,0,2.8-2.1c1-.92,15-17.27,25.77-21.32,5-1.89,11.1,2.46,11.1,2.46s1.16-.14,1-.76-2.26-2.91-3.28-4.23c-6.66-8.61-15.43-5.22-20.66-2.57-7.2,3.64-20.6,15.75-22.27,17.73s-3,2.76-3.37,3.75S66.33,58.76,66.93,59.1Z" transform="translate(-33.28 -32.81)"/><path class="cls-4" d="M141.08,66.69a5.21,5.21,0,0,0-.94-.39,6.78,6.78,0,0,0-1.65-.28,9.59,9.59,0,0,0-1.44,0,12,12,0,0,0-2.51.57,9.26,9.26,0,0,0-5.26,4.16,7.8,7.8,0,0,0-1.08,2c-.17.52-1.12,1.46-1,1.52-.45.29,0,0-.36.49a1.81,1.81,0,0,0-.35.89,2,2,0,0,0,.34,1.21,3.31,3.31,0,0,0,.53.63,4,4,0,0,0,.39.31l.21.14.21.12a7,7,0,0,0,1.85.73,11.11,11.11,0,0,0,4.74,0A8.22,8.22,0,0,0,138,77.78a13.14,13.14,0,0,0,2.22-1.53,11.14,11.14,0,0,0,2-2.18,7.87,7.87,0,0,0,.84-1.55,5.25,5.25,0,0,0,.4-2.4,4.19,4.19,0,0,0-1.29-2.7A4.76,4.76,0,0,0,141.08,66.69Z" transform="translate(-33.28 -32.81)"/><path class="cls-5" d="M183.26,77.13v25.6a14.74,14.74,0,0,1-3.92.44,9.68,9.68,0,0,1-3-.41,4.67,4.67,0,0,1-2.12-1.4A6.27,6.27,0,0,1,173,98.71a18.24,18.24,0,0,1-.41-4.26V77.13a26.65,26.65,0,0,0-9,0V94.7a22.09,22.09,0,0,0,1.33,8.41,11.07,11.07,0,0,0,3.57,4.8,12.21,12.21,0,0,0,5.21,2.15,37.22,37.22,0,0,0,6.2.5,34.74,34.74,0,0,0,6.92-.66,42.52,42.52,0,0,0,5.34-1.36V77.13a26.7,26.7,0,0,0-4.49-.38A26.34,26.34,0,0,0,183.26,77.13Z" transform="translate(-33.28 -32.81)"/><path class="cls-5" d="M218.08,76.37a10.33,10.33,0,0,0-3.22.47,11,11,0,0,0-4.68,2.94,15.57,15.57,0,0,0-1.52,1.9c0-.3-.1-.65-.16-1.07s-.14-.86-.23-1.29-.18-.86-.28-1.27a3.43,3.43,0,0,0-.35-.92c-.59-.12-1.15-.22-1.7-.28a17,17,0,0,0-1.9-.1,18.67,18.67,0,0,0-2,.1,17.43,17.43,0,0,0-1.77.28V109.8a27,27,0,0,0,9,0V92.67a13.35,13.35,0,0,1,.57-4.3,6.62,6.62,0,0,1,1.49-2.56,4.61,4.61,0,0,1,2.05-1.23,8.15,8.15,0,0,1,2.21-.32,3.84,3.84,0,0,1,3.64,1.83,10.8,10.8,0,0,1,1,5.25V109.8a27,27,0,0,0,9,0V88.94q0-6.51-2.81-9.55T218.08,76.37Z" transform="translate(-33.28 -32.81)"/><path class="cls-5" d="M234.58,80.48a15.57,15.57,0,0,0,.1,1.73A14.33,14.33,0,0,0,235,84h4.23V109.8a26.18,26.18,0,0,0,4.36.38,26.58,26.58,0,0,0,4.43-.38V77.13H235A14.88,14.88,0,0,0,234.58,80.48Z" transform="translate(-33.28 -32.81)"/><path class="cls-5" d="M269.35,66.66a5.81,5.81,0,0,1,3.6-1,10.47,10.47,0,0,1,2,.16l1.45.28a16.81,16.81,0,0,0,.92-3.31,33.73,33.73,0,0,0,.41-3.76,17.55,17.55,0,0,0-2.81-.6,27.49,27.49,0,0,0-3.19-.16,15.17,15.17,0,0,0-5.21.86,11.53,11.53,0,0,0-4.08,2.46,10.64,10.64,0,0,0-2.62,4,14.89,14.89,0,0,0-.92,5.4v6.36h-5.18a13.25,13.25,0,0,0-.25,1.7c0,.5-.06,1-.06,1.58s0,1.17.06,1.71a15.13,15.13,0,0,0,.25,1.83h5.18V110a26.76,26.76,0,0,0,4.48.38,26.38,26.38,0,0,0,4.43-.38V84.1h7.59c.13-.63.21-1.2.26-1.71s.06-1,.06-1.58,0-1.16-.06-1.7-.13-1.16-.26-1.83h-7.59V71.11C267.92,68.84,268.42,67.35,269.35,66.66Z" transform="translate(-33.28 -32.81)"/><path class="cls-5" d="M444.58,102.94l-1.45.28a10.46,10.46,0,0,1-2,.16,5.82,5.82,0,0,1-3.6-1c-.93-.69-1.43-2.18-1.52-4.46V83.84h7.59c.13-.67.21-1.29.25-1.83s.06-1.12.06-1.71,0-1.08-.06-1.58a16.5,16.5,0,0,0-.25-1.71H436V59a27,27,0,0,0-4.43-.38,27.41,27.41,0,0,0-4.49.38V77h-5.18a17,17,0,0,0-.26,1.83c0,.55-.06,1.12-.06,1.71s0,1.07.06,1.58a15.05,15.05,0,0,0,.26,1.71h5.18V98.08a14.84,14.84,0,0,0,.92,5.4,10.6,10.6,0,0,0,2.62,4,11.46,11.46,0,0,0,4.08,2.46,15.24,15.24,0,0,0,5.21.86,26.83,26.83,0,0,0,3.19-.16,17.22,17.22,0,0,0,2.8-.6,33.08,33.08,0,0,0-.41-3.76A17.07,17.07,0,0,0,444.58,102.94Z" transform="translate(-33.28 -32.81)"/><path class="cls-5" d="M304.18,81.32a13.65,13.65,0,0,0-4.93-3.63,16.77,16.77,0,0,0-7-1.33,16.57,16.57,0,0,0-6.92,1.33,13.45,13.45,0,0,0-4.87,3.63,15.76,15.76,0,0,0-2.91,5.47,22.82,22.82,0,0,0-1,6.76,22.2,22.2,0,0,0,1,6.7,15.78,15.78,0,0,0,2.91,5.4,13,13,0,0,0,4.87,3.6,17,17,0,0,0,6.92,1.3,17.16,17.16,0,0,0,7-1.3,13.19,13.19,0,0,0,4.93-3.6,15,15,0,0,0,2.91-5.4,22.89,22.89,0,0,0,1-6.7,23.53,23.53,0,0,0-1-6.76A15,15,0,0,0,304.18,81.32Zm-6.79,19.79a5.45,5.45,0,0,1-5.09,2.63,5.39,5.39,0,0,1-5-2.63q-1.55-2.62-1.55-7.55T287.27,86a5.38,5.38,0,0,1,5-2.62A5.44,5.44,0,0,1,297.39,86q1.55,2.62,1.55,7.56T297.39,101.11Z" transform="translate(-33.28 -32.81)"/><path class="cls-5" d="M333.08,77a5.72,5.72,0,0,0-1.2-.2c-.55,0-1-.06-1.45-.06a8.07,8.07,0,0,0-5.06,1.55A16.11,16.11,0,0,0,322,81.8l-.16-1.11c-.06-.44-.13-.89-.22-1.32s-.18-.86-.28-1.27a3.7,3.7,0,0,0-.35-.91c-.59-.13-1.2-.23-1.8-.32a14.17,14.17,0,0,0-1.87-.12,17.31,17.31,0,0,0-1.86.1c-.57.06-1.17.16-1.8.28v32.74c.8.12,1.57.21,2.31.25s1.46.06,2.18.06,1.45,0,2.22-.06a21.34,21.34,0,0,0,2.27-.25V94.32a14.24,14.24,0,0,1,.79-5.3,6.93,6.93,0,0,1,2-2.85A5.5,5.5,0,0,1,327.89,85a14.92,14.92,0,0,1,2.4-.23h1a8.88,8.88,0,0,1,1.55.13,17.85,17.85,0,0,0,.35-2.4c.06-.84.09-1.62.09-2.34s0-1.16-.06-1.71A11.62,11.62,0,0,0,333.08,77Z" transform="translate(-33.28 -32.81)"/><path class="cls-5" d="M374.86,76.37A9.46,9.46,0,0,0,369,78.11a12.73,12.73,0,0,0-3.58,4.08q-2.15-5.81-9.79-5.81a10.07,10.07,0,0,0-3.19.47,10.77,10.77,0,0,0-2.56,1.23,9.91,9.91,0,0,0-2,1.71,10.51,10.51,0,0,0-1.32,1.9c0-.3-.1-.65-.16-1.07s-.13-.86-.22-1.29-.18-.86-.28-1.27a3.9,3.9,0,0,0-.35-.92c-.59-.12-1.16-.22-1.71-.28a17.13,17.13,0,0,0-1.9-.1,18.9,18.9,0,0,0-2,.1,17.44,17.44,0,0,0-1.77.28V109.8a27,27,0,0,0,9,0V92.67a15.08,15.08,0,0,1,.5-4.3,6.44,6.44,0,0,1,1.36-2.56A4.22,4.22,0,0,1,351,84.59a7.51,7.51,0,0,1,2.15-.32c1.73,0,2.88.62,3.44,1.83a12.86,12.86,0,0,1,.85,5.25V109.8a27,27,0,0,0,9,0V92.17a12.39,12.39,0,0,1,.54-4,6.3,6.3,0,0,1,1.39-2.41,4.5,4.5,0,0,1,1.9-1.16,7.14,7.14,0,0,1,2.11-.32,3.44,3.44,0,0,1,3.45,1.83,13,13,0,0,1,.85,5.25V109.8a27,27,0,0,0,9,0V89q0-6.51-2.63-9.58T374.86,76.37Z" transform="translate(-33.28 -32.81)"/><path class="cls-5" d="M415.15,79.53q-3.71-3.16-10.27-3.16a33.74,33.74,0,0,0-10.74,1.83,12,12,0,0,0,.44,3.48,16.88,16.88,0,0,0,1.32,3.1,22.34,22.34,0,0,1,7.27-1.32,20.05,20.05,0,0,1,2.87.19,6,6,0,0,1,2.19.73,3.76,3.76,0,0,1,1.39,1.48,5.27,5.27,0,0,1,.51,2.46v.76c-1.48-.13-2.83-.19-4.05-.19a24.15,24.15,0,0,0-5.06.54,14.83,14.83,0,0,0-4.58,1.77,10,10,0,0,0-3.35,3.29,9.35,9.35,0,0,0-1.3,5.09,11.39,11.39,0,0,0,1,5.11,9,9,0,0,0,3,3.41,12.61,12.61,0,0,0,4.62,1.89,28.17,28.17,0,0,0,5.91.57,36.51,36.51,0,0,0,7.14-.63,50.2,50.2,0,0,0,5.38-1.33v-19Q418.85,82.69,415.15,79.53Zm-5,23.63-1.64.29a11.76,11.76,0,0,1-1.9.16c-.55,0-1.2,0-1.93-.1a6.84,6.84,0,0,1-2.09-.5,4.21,4.21,0,0,1-1.67-1.3,4,4,0,0,1-.69-2.53,3.88,3.88,0,0,1,1.8-3.57,9.4,9.4,0,0,1,4.9-1.1,15.41,15.41,0,0,1,1.58.09c.59.06,1.14.14,1.64.22Z" transform="translate(-33.28 -32.81)"/><path class="cls-5" d="M447.48,80.48a15.57,15.57,0,0,0,.1,1.73,12.8,12.8,0,0,0,.28,1.74h4.24V109.8a26.24,26.24,0,0,0,4.36.38,26.63,26.63,0,0,0,4.43-.38V77.13h-13A15.05,15.05,0,0,0,447.48,80.48Z" transform="translate(-33.28 -32.81)"/><path class="cls-5" d="M453.11,67.71q1.27.06,2.28.06t2.31-.06a21.55,21.55,0,0,0,2.31-.25,18.54,18.54,0,0,0,.25-2.15c0-.72.06-1.42.06-2.09s0-1.42-.06-2.12A18.36,18.36,0,0,0,460,59c-.72-.13-1.5-.22-2.34-.29s-1.63-.09-2.34-.09-1.42,0-2.24.09-1.59.16-2.31.29a15.71,15.71,0,0,0-.37,4.23,24.22,24.22,0,0,0,.37,4.24A21.42,21.42,0,0,0,453.11,67.71Z" transform="translate(-33.28 -32.81)"/><path class="cls-5" d="M240.23,67.71q1.27.06,2.27.06c.72,0,1.49,0,2.31-.06a21.57,21.57,0,0,0,2.31-.25,18.52,18.52,0,0,0,.25-2.15c0-.72.06-1.42.06-2.09s0-1.42-.06-2.12a18.34,18.34,0,0,0-.25-2.12c-.72-.13-1.5-.22-2.34-.29s-1.63-.09-2.34-.09-1.42,0-2.25.09-1.59.16-2.31.29a15.71,15.71,0,0,0-.37,4.23,24.17,24.17,0,0,0,.37,4.24A21.58,21.58,0,0,0,240.23,67.71Z" transform="translate(-33.28 -32.81)"/><path class="cls-5" d="M494.7,81.32a13.68,13.68,0,0,0-4.93-3.63,16.75,16.75,0,0,0-6.95-1.33,16.56,16.56,0,0,0-6.92,1.33A13.49,13.49,0,0,0,471,81.32a15.81,15.81,0,0,0-2.91,5.47,22.84,22.84,0,0,0-1,6.76,22.22,22.22,0,0,0,1,6.7,15.82,15.82,0,0,0,2.91,5.4,13,13,0,0,0,4.87,3.6,16.94,16.94,0,0,0,6.92,1.3,17.13,17.13,0,0,0,6.95-1.3,13.22,13.22,0,0,0,4.93-3.6,15.11,15.11,0,0,0,2.91-5.4,22.78,22.78,0,0,0,.95-6.7,23.41,23.41,0,0,0-.95-6.76A15.11,15.11,0,0,0,494.7,81.32Zm-6.79,19.79a5.45,5.45,0,0,1-5.08,2.63,5.39,5.39,0,0,1-5-2.63q-1.55-2.62-1.54-7.55T477.8,86a5.38,5.38,0,0,1,5-2.62A5.44,5.44,0,0,1,487.91,86q1.55,2.62,1.55,7.56T487.91,101.11Z" transform="translate(-33.28 -32.81)"/><path class="cls-5" d="M530.27,79.4q-2.8-3-8.37-3a10.33,10.33,0,0,0-3.22.47,11.16,11.16,0,0,0-2.62,1.23A11.36,11.36,0,0,0,514,79.78a15.34,15.34,0,0,0-1.51,1.9c0-.3-.1-.65-.16-1.07s-.14-.86-.23-1.29-.18-.86-.28-1.27a3.64,3.64,0,0,0-.35-.92c-.59-.12-1.15-.22-1.7-.28a17.15,17.15,0,0,0-1.9-.1,18.77,18.77,0,0,0-2,.1,17.55,17.55,0,0,0-1.77.28V109.8a26.92,26.92,0,0,0,9,0V92.67a13.41,13.41,0,0,1,.58-4.3,6.51,6.51,0,0,1,1.49-2.56,4.58,4.58,0,0,1,2.05-1.23,8.08,8.08,0,0,1,2.21-.32,3.83,3.83,0,0,1,3.63,1.83,10.69,10.69,0,0,1,1,5.25V109.8a27,27,0,0,0,9,0V88.94Q533.08,82.44,530.27,79.4Z" transform="translate(-33.28 -32.81)"/></svg>